<mxfile host="app.diagrams.net" modified="2020-09-30T08:21:59.362Z" agent="5.0 (Windows NT 10.0; WOW64) AppleWebKit/537.36 (KHTML, like Gecko) Chrome/72.0.3626.121 Safari/537.36" etag="crRnXppwJXkRVAtPzrNU" version="13.7.6" type="github">
  <diagram id="qV0q8ZnibLqjwUR9Dfzh" name="第 1 页">
    <mxGraphModel dx="868" dy="460" grid="1" gridSize="10" guides="1" tooltips="1" connect="1" arrows="1" fold="1" page="1" pageScale="1" pageWidth="827" pageHeight="1169" math="0" shadow="0">
      <root>
        <mxCell id="0" />
        <mxCell id="1" parent="0" />
        <object label="代码段" id="en6KkWz-SCpkne4RCK_7-2">
          <mxCell style="verticalLabelPosition=bottom;verticalAlign=top;html=1;shape=mxgraph.basic.rect;fillColor2=none;strokeWidth=1;size=20;indent=5;fillColor=#E6E6E6;labelBackgroundColor=none;fontStyle=0" vertex="1" parent="1">
            <mxGeometry x="50" y="10" width="280" height="80" as="geometry" />
          </mxCell>
        </object>
      </root>
    </mxGraphModel>
  </diagram>
</mxfile>
